<svg width="30" height="30" viewBox="0 0 30 30" fill="none" xmlns="http://www.w3.org/2000/svg">
    <path d="M15 1.5C13.146 1.49998 11.3373 2.0725 9.82106 3.1393C8.30481 4.2061 7.15501 5.71512 6.52881 7.4601C5.90261 9.20508 5.83058 11.1009 6.32256 12.8883C6.81454 14.6758 7.84653 16.2677 9.27745 17.4465C10.8555 18.75 12 20.1645 12 21.684V22.65C11.9998 22.902 12.0843 23.1468 12.2399 23.3451C12.3955 23.5434 12.6131 23.6837 12.858 23.7435C14.2653 24.0874 15.7347 24.0874 17.142 23.7435C17.3868 23.6837 17.6044 23.5434 17.76 23.3451C17.9156 23.1468 18.0001 22.902 18 22.65V21.684C18 20.1645 19.143 18.7485 20.7225 17.4465C22.1534 16.2677 23.1854 14.6758 23.6773 12.8883C24.1693 11.1009 24.0973 9.20508 23.4711 7.4601C22.8449 5.71512 21.6951 4.2061 20.1788 3.1393C18.6626 2.0725 16.8539 1.49998 15 1.5ZM13.2945 26.121C13.1484 26.0987 12.9994 26.1055 12.8559 26.1408C12.7125 26.1761 12.5774 26.2394 12.4583 26.3269C12.218 26.5037 12.0577 26.7688 12.0127 27.0637C11.9678 27.3587 12.0418 27.6595 12.2186 27.8999C12.3954 28.1402 12.6605 28.3005 12.9555 28.3455C14.3107 28.5516 15.6892 28.5516 17.0445 28.3455C17.3394 28.3005 17.6045 28.1402 17.7813 27.8999C17.9581 27.6595 18.0322 27.3587 17.9872 27.0637C17.9423 26.7688 17.782 26.5037 17.5416 26.3269C17.3012 26.1501 17.0004 26.076 16.7055 26.121C15.575 26.2931 14.4249 26.2931 13.2945 26.121Z"
          fill="#2B5A49"/>
    <circle cx="15" cy="10" r="2" fill="white"/>
</svg>
