<svg width="31" height="30" viewBox="0 0 31 30" fill="none" xmlns="http://www.w3.org/2000/svg">
    <g clip-path="url(#clip0_7_405)">
        <path d="M29.6507 0H18.177C17.3892 0 16.2858 0.457037 15.7293 1.01351L1.50378 15.239C1.23555 15.5085 1.08496 15.8733 1.08496 16.2535C1.08496 16.6337 1.23555 16.9985 1.50378 17.268L13.817 29.5812C14.0865 29.8494 14.4512 30 14.8315 30C15.2117 30 15.5765 29.8494 15.8459 29.5812L30.0714 15.3557C30.6298 14.7973 31.085 13.6958 31.085 12.9079V1.43422C31.0835 1.0543 30.9319 0.690382 30.6632 0.421741C30.3946 0.1531 30.0307 0.0015106 29.6507 0ZM22.4797 11.4737C22.1029 11.4736 21.7298 11.3993 21.3817 11.2549C21.0336 11.1106 20.7173 10.8992 20.451 10.6326C20.1846 10.3661 19.9734 10.0497 19.8293 9.70152C19.6852 9.35334 19.6111 8.9802 19.6112 8.60338C19.6114 8.22657 19.6857 7.85347 19.83 7.50539C19.9743 7.15731 20.1858 6.84106 20.4523 6.5747C20.7189 6.30834 21.0353 6.09709 21.3834 5.953C21.7316 5.80892 22.1048 5.73483 22.4816 5.73495C23.2426 5.73521 23.9723 6.03776 24.5103 6.57605C25.0482 7.11435 25.3503 7.84429 25.35 8.6053C25.3498 9.3663 25.0472 10.096 24.5089 10.634C23.9706 11.1719 23.2407 11.474 22.4797 11.4737Z"
              fill="#2B5A49"/>
    </g>
    <defs>
        <clipPath id="clip0_7_405">
            <rect width="30" height="30" fill="white" transform="translate(0.5)"/>
        </clipPath>
    </defs>
</svg>
